<svg id="Layer_1" data-name="Layer 1" xmlns="http://www.w3.org/2000/svg" viewBox="0 0 213.67 250" fill="pink">
    <title>user-astronaut</title>
    <path d="M53.21,109.76a73.5,73.5,0,0,0,143.58,0A23.9,23.9,0,0,0,213.54,87v0A23.85,23.85,0,0,0,191.82,63.3,73.47,73.47,0,0,0,85.37,32V20a11,11,0,1,0-12.69,0V42.32a73.49,73.49,0,0,0-14.5,21A23.85,23.85,0,0,0,36.46,87v0A23.9,23.9,0,0,0,53.21,109.76Zm15-33.71A22.39,22.39,0,0,1,79,63.18a22.77,22.77,0,0,1,10.83-2.72h70.3a22.75,22.75,0,0,1,21.69,15.87,59.52,59.52,0,0,1-59.61,77c-25.49-1.16-47.09-19-54.23-42.53a58.6,58.6,0,0,1-2.44-14.59A59.2,59.2,0,0,1,68.24,76.05Z" transform="translate(-18.16)" />
    <path d="M229.47,221.86a113.56,113.56,0,0,0-18.75-25.31,84,84,0,0,0-56.83-24.9l.07,0a339.84,339.84,0,0,0-63.13.38l-.22,0-1.79.2.05,0a83.92,83.92,0,0,0-49.59,24.3,114.5,114.5,0,0,0-18.75,25.31C13.52,234.5,23,250,37.41,250H72.52V210.12A16.2,16.2,0,0,1,88.66,194h72.68a16.2,16.2,0,0,1,16.14,16.14V250h35.11C227.05,250,236.48,234.5,229.47,221.86Z" transform="translate(-18.16)" />
    <circle cx="135.12" cy="224.48" r="10.25" />
    <path d="M93.34,214.23a5.92,5.92,0,0,0-5.9,5.9V250H99.25V220.13A5.93,5.93,0,0,0,93.34,214.23Z" transform="translate(-18.16)" />
    <path d="M155.42,133.09a5.59,5.59,0,0,0,4.14-1.83c18.88-20.78,14.05-43.81,8.86-53.08a5.59,5.59,0,0,0-9.76,5.46c.11.2,10.87,20-7.37,40.1a5.58,5.58,0,0,0,4.13,9.35Z" transform="translate(-18.16)" />
</svg>